<svg width="1200" height="630" viewBox="0 0 1200 630" xmlns="http://www.w3.org/2000/svg"><rect x="0" y="0" width="1200" height="630" fill="#fefbfb"/><defs><clipPath id="satori_bc-id-0"><path x="105" y="39" width="1056" height="504" d="M109,39 h1048 a4,4 0 0 1 4,4 v496 a4,4 0 0 1 -4,4 h-1048 a4,4 0 0 1 -4,-4 v-496 a4,4 0 0 1 4,-4"/></clipPath></defs><g opacity="0.9"><path x="105" y="39" width="1056" height="504" fill="#ecebeb" d="M109,39 h1048 a4,4 0 0 1 4,4 v496 a4,4 0 0 1 -4,4 h-1048 a4,4 0 0 1 -4,-4 v-496 a4,4 0 0 1 4,-4"/><path width="1056" height="504" clip-path="url(#satori_bc-id-0)" fill="none" stroke="#000" stroke-width="8" d="M106.172,40.172 A4,4 0 0 1 109,39 h1048 a4,4 0 0 1 4,4 v496 a4,4 0 0 1 -4,4 h-1048 a4,4 0 0 1 -4,-4 v-496 A4,4 0 0 1 106.172,40.172"/></g><defs><clipPath id="satori_bc-id-1"><path x="72" y="63" width="1056" height="504" d="M76,63 h1048 a4,4 0 0 1 4,4 v496 a4,4 0 0 1 -4,4 h-1048 a4,4 0 0 1 -4,-4 v-496 a4,4 0 0 1 4,-4"/></clipPath></defs><path x="72" y="63" width="1056" height="504" fill="#fefbfb" d="M76,63 h1048 a4,4 0 0 1 4,4 v496 a4,4 0 0 1 -4,4 h-1048 a4,4 0 0 1 -4,-4 v-496 a4,4 0 0 1 4,-4"/><path width="1056" height="504" clip-path="url(#satori_bc-id-1)" fill="none" stroke="#000" stroke-width="8" d="M73.172,64.172 A4,4 0 0 1 76,63 h1048 a4,4 0 0 1 4,4 v496 a4,4 0 0 1 -4,4 h-1048 a4,4 0 0 1 -4,-4 v-496 A4,4 0 0 1 73.172,64.172"/><clipPath id="satori_cp-id-1-0-0"><rect x="128" y="103" width="944" height="187"/></clipPath><mask id="satori_om-id-1-0-0"><rect x="128" y="103" width="944" height="187" fill="#fff"/></mask><path fill="black" d="M168.9 183.0L130.3 183.0L130.3 126.8L168.9 126.8L168.9 183.0ZM137.5 134.0L137.5 175.8L161.7 175.8L161.7 134.0L137.5 134.0ZM212.1 183.0L173.5 183.0L173.5 126.8L212.1 126.8L212.1 183.0ZM180.7 134.0L180.7 175.8L204.9 175.8L204.9 134.0L180.7 134.0ZM255.3 183.0L216.7 183.0L216.7 126.8L255.3 126.8L255.3 183.0ZM223.9 134.0L223.9 175.8L248.1 175.8L248.1 134.0L223.9 134.0ZM298.5 183.0L259.9 183.0L259.9 126.8L298.5 126.8L298.5 183.0ZM267.1 134.0L267.1 175.8L291.3 175.8L291.3 134.0L267.1 134.0ZM341.7 183.0L303.1 183.0L303.1 126.8L341.7 126.8L341.7 183.0ZM310.3 134.0L310.3 175.8L334.5 175.8L334.5 134.0L310.3 134.0ZM384.9 183.0L346.3 183.0L346.3 126.8L384.9 126.8L384.9 183.0ZM353.5 134.0L353.5 175.8L377.7 175.8L377.7 134.0L353.5 134.0ZM428.1 183.0L389.5 183.0L389.5 126.8L428.1 126.8L428.1 183.0ZM396.7 134.0L396.7 175.8L420.9 175.8L420.9 134.0L396.7 134.0ZM471.3 183.0L432.7 183.0L432.7 126.8L471.3 126.8L471.3 183.0ZM439.9 134.0L439.9 175.8L464.1 175.8L464.1 134.0L439.9 134.0ZM516.8 165.4L473.6 165.4L473.6 156.7L516.8 156.7L516.8 165.4ZM560 165.4L516.8 165.4L516.8 156.7L560 156.7L560 165.4ZM582.8 183.8L582.8 183.8Q572.7 183.8 567.8 177.0Q563.0 170.2 563.0 157.8L563.0 157.8Q563.0 145.4 567.8 138.6Q572.7 131.8 582.8 131.8L582.8 131.8Q586.6 131.8 589.6 132.9Q592.6 133.9 594.8 135.8Q596.9 137.7 598.3 140.3Q599.7 143.0 600.5 146.3L600.5 146.3L590.5 148.8Q590.0 147.0 589.4 145.4Q588.9 143.9 588.0 142.8Q587.1 141.8 585.7 141.2Q584.4 140.5 582.5 140.5L582.5 140.5Q578.1 140.5 576.3 144.0Q574.5 147.4 574.5 153.4L574.5 153.4L574.5 162.2Q574.5 168.3 576.3 171.7Q578.1 175.1 582.5 175.1L582.5 175.1Q586.3 175.1 588.0 172.8Q589.7 170.5 590.5 166.9L590.5 166.9L600.5 169.3Q599.7 172.7 598.3 175.3Q596.9 178.0 594.8 179.9Q592.6 181.8 589.6 182.8Q586.6 183.8 582.8 183.8ZM626.0 183.8L626.0 183.8Q615.9 183.8 611.0 177.0Q606.2 170.2 606.2 157.8L606.2 157.8Q606.2 145.4 611.0 138.6Q615.9 131.8 626.0 131.8L626.0 131.8Q629.8 131.8 632.8 132.9Q635.8 133.9 638.0 135.8Q640.1 137.7 641.5 140.3Q642.9 143.0 643.7 146.3L643.7 146.3L633.7 148.8Q633.2 147.0 632.6 145.4Q632.1 143.9 631.2 142.8Q630.3 141.8 628.9 141.2Q627.6 140.5 625.7 140.5L625.7 140.5Q621.3 140.5 619.5 144.0Q617.7 147.4 617.7 153.4L617.7 153.4L617.7 162.2Q617.7 168.3 619.5 171.7Q621.3 175.1 625.7 175.1L625.7 175.1Q629.5 175.1 631.2 172.8Q632.9 170.5 633.7 166.9L633.7 166.9L643.7 169.3Q642.9 172.7 641.5 175.3Q640.1 178.0 638.0 179.9Q635.8 181.8 632.8 182.8Q629.8 183.8 626.0 183.8Z M730.5 183.0L691.9 183.0L691.9 126.8L730.5 126.8L730.5 183.0ZM699.1 134.0L699.1 175.8L723.3 175.8L723.3 134.0L699.1 134.0ZM773.7 183.0L735.1 183.0L735.1 126.8L773.7 126.8L773.7 183.0ZM742.3 134.0L742.3 175.8L766.5 175.8L766.5 134.0L742.3 134.0ZM816.9 183.0L778.3 183.0L778.3 126.8L816.9 126.8L816.9 183.0ZM785.5 134.0L785.5 175.8L809.7 175.8L809.7 134.0L785.5 134.0ZM860.1 183.0L821.5 183.0L821.5 126.8L860.1 126.8L860.1 183.0ZM828.7 134.0L828.7 175.8L852.9 175.8L852.9 134.0L828.7 134.0ZM903.3 183.0L864.7 183.0L864.7 126.8L903.3 126.8L903.3 183.0ZM871.9 134.0L871.9 175.8L896.1 175.8L896.1 134.0L871.9 134.0ZM946.5 183.0L907.9 183.0L907.9 126.8L946.5 126.8L946.5 183.0ZM915.1 134.0L915.1 175.8L939.3 175.8L939.3 134.0L915.1 134.0ZM989.7 183.0L951.1 183.0L951.1 126.8L989.7 126.8L989.7 183.0ZM958.3 134.0L958.3 175.8L982.5 175.8L982.5 134.0L958.3 134.0ZM1032.9 183.0L994.3 183.0L994.3 126.8L1032.9 126.8L1032.9 183.0ZM1001.5 134.0L1001.5 175.8L1025.7 175.8L1025.7 134.0L1001.5 134.0Z M168.9 276.6L130.3 276.6L130.3 220.4L168.9 220.4L168.9 276.6ZM137.5 227.6L137.5 269.4L161.7 269.4L161.7 227.6L137.5 227.6Z " clip-path="url(#satori_cp-id-1-0-0)" mask="url(#satori_om-id-1-0-0)"/><path fill="black" d="M130.7 520.3L130.7 499.6L132.9 499.6L132.9 508.2L133.0 508.2Q134.4 505.5 137.5 505.5L137.5 505.5Q140.1 505.5 141.6 507.5Q143.1 509.5 143.1 513.0L143.1 513.0Q143.1 516.6 141.6 518.6Q140.1 520.6 137.5 520.6L137.5 520.6Q134.4 520.6 133.0 517.9L133.0 517.9L132.9 517.9L132.9 520.3L130.7 520.3ZM136.6 518.6L136.6 518.6Q138.6 518.6 139.6 517.4Q140.7 516.2 140.7 514.3L140.7 514.3L140.7 511.8Q140.7 509.9 139.6 508.7Q138.6 507.5 136.6 507.5L136.6 507.5Q135.8 507.5 135.2 507.7Q134.5 507.9 134.0 508.2Q133.5 508.6 133.2 509.2Q132.9 509.7 132.9 510.4L132.9 510.4L132.9 515.7Q132.9 516.4 133.2 516.9Q133.5 517.5 134.0 517.8Q134.5 518.2 135.2 518.4Q135.8 518.6 136.6 518.6ZM155.4 511.9L157.9 505.8L160.1 505.8L152.9 523.4Q152.7 524.1 152.4 524.5Q152.1 525.0 151.7 525.3Q151.2 525.6 150.7 525.7Q150.1 525.9 149.3 525.9L149.3 525.9L147.1 525.9L147.1 524.0L150.5 524.0L152.1 520.0L146.3 505.8L148.6 505.8L151.0 511.9L153.2 517.4L153.3 517.4L155.4 511.9Z "/><clipPath id="satori_cp-id-1-0-1-0-2"><rect x="178" y="489" width="33" height="36"/></clipPath><mask id="satori_om-id-1-0-1-0-2"><rect x="178" y="489" width="33" height="36" fill="#fff"/></mask><path fill="black" d="M193.9 520.1L178.9 520.1L178.9 498.3L193.9 498.3L193.9 520.1ZM181.7 501.1L181.7 517.3L191.1 517.3L191.1 501.1L181.7 501.1ZM210.7 520.1L195.7 520.1L195.7 498.3L210.7 498.3L210.7 520.1ZM198.5 501.1L198.5 517.3L207.9 517.3L207.9 501.1L198.5 501.1Z " clip-path="url(#satori_cp-id-1-0-1-0-2)" mask="url(#satori_om-id-1-0-1-0-2)"/><clipPath id="satori_cp-id-1-0-1-1"><rect x="954" y="489" width="118" height="36"/></clipPath><mask id="satori_om-id-1-0-1-1"><rect x="954" y="489" width="118" height="36" fill="#fff"/></mask><path fill="black" d="M969.9 520.1L954.9 520.1L954.9 498.3L969.9 498.3L969.9 520.1ZM957.7 501.1L957.7 517.3L967.1 517.3L967.1 501.1L957.7 501.1ZM986.7 520.1L971.7 520.1L971.7 498.3L986.7 498.3L986.7 520.1ZM974.5 501.1L974.5 517.3L983.9 517.3L983.9 501.1L974.5 501.1ZM1003.5 520.1L988.5 520.1L988.5 498.3L1003.5 498.3L1003.5 520.1ZM991.3 501.1L991.3 517.3L1000.7 517.3L1000.7 501.1L991.3 501.1ZM1006.1 520.1L1006.1 499.4L1010.2 499.4L1010.2 508.3L1010.4 508.3Q1010.9 507.0 1011.9 506.1Q1012.9 505.3 1014.7 505.3L1014.7 505.3Q1015.9 505.3 1016.9 505.8Q1017.9 506.2 1018.6 507.1Q1019.3 508.1 1019.7 509.5Q1020.1 510.9 1020.1 512.9L1020.1 512.9Q1020.1 514.8 1019.7 516.3Q1019.3 517.7 1018.6 518.6Q1017.9 519.5 1016.9 520.0Q1015.9 520.4 1014.7 520.4L1014.7 520.4Q1012.9 520.4 1011.9 519.6Q1010.9 518.8 1010.4 517.5L1010.4 517.5L1010.2 517.5L1010.2 520.1L1006.1 520.1ZM1012.9 517.2L1012.9 517.2Q1014.3 517.2 1015.0 516.4Q1015.8 515.5 1015.8 514.0L1015.8 514.0L1015.8 511.7Q1015.8 510.2 1015.0 509.4Q1014.3 508.5 1012.9 508.5L1012.9 508.5Q1011.8 508.5 1011.0 509.1Q1010.2 509.6 1010.2 510.7L1010.2 510.7L1010.2 515.0Q1010.2 516.1 1011.0 516.7Q1011.8 517.2 1012.9 517.2ZM1023.1 520.1L1023.1 516.9L1027.5 516.9L1027.5 502.6L1023.1 502.6L1023.1 499.4L1031.7 499.4L1031.7 516.9L1036.1 516.9L1036.1 520.1L1023.1 520.1ZM1046.4 520.4L1046.4 520.4Q1044.7 520.4 1043.4 519.9Q1042.0 519.4 1041.1 518.4Q1040.2 517.4 1039.7 516.0Q1039.1 514.6 1039.1 512.9L1039.1 512.9Q1039.1 511.1 1039.7 509.7Q1040.2 508.3 1041.1 507.3Q1042.0 506.3 1043.4 505.8Q1044.7 505.3 1046.4 505.3L1046.4 505.3Q1048.1 505.3 1049.4 505.8Q1050.8 506.3 1051.7 507.3Q1052.6 508.3 1053.1 509.7Q1053.7 511.1 1053.7 512.9L1053.7 512.9Q1053.7 514.6 1053.1 516.0Q1052.6 517.4 1051.7 518.4Q1050.8 519.4 1049.4 519.9Q1048.1 520.4 1046.4 520.4ZM1046.4 517.3L1046.4 517.3Q1047.8 517.3 1048.6 516.5Q1049.4 515.6 1049.4 514.0L1049.4 514.0L1049.4 511.7Q1049.4 510.1 1048.6 509.3Q1047.8 508.4 1046.4 508.4L1046.4 508.4Q1045.0 508.4 1044.2 509.3Q1043.4 510.1 1043.4 511.7L1043.4 511.7L1043.4 514.0Q1043.4 515.6 1044.2 516.5Q1045.0 517.3 1046.4 517.3ZM1071.1 521.5L1071.1 521.5Q1071.1 523.8 1069.2 524.9Q1067.3 526.0 1063.1 526.0L1063.1 526.0Q1061.0 526.0 1059.7 525.8Q1058.4 525.6 1057.6 525.1Q1056.8 524.7 1056.4 524.0Q1056.1 523.4 1056.1 522.7L1056.1 522.7Q1056.1 521.5 1056.8 520.8Q1057.6 520.2 1058.9 519.9L1058.9 519.9L1058.9 519.7Q1058.0 519.4 1057.4 518.9Q1056.9 518.4 1056.9 517.4L1056.9 517.4Q1056.9 516.4 1057.6 515.9Q1058.3 515.4 1059.5 515.1L1059.5 515.1L1059.5 514.9Q1058.2 514.3 1057.5 513.2Q1056.8 512.1 1056.8 510.5L1056.8 510.5Q1056.8 509.2 1057.2 508.2Q1057.7 507.3 1058.5 506.6Q1059.3 506.0 1060.5 505.6Q1061.6 505.3 1063.0 505.3L1063.0 505.3Q1064.4 505.3 1065.6 505.6L1065.6 505.6L1065.6 504.8Q1065.6 504.0 1066.2 503.4Q1066.8 502.9 1067.8 502.9L1067.8 502.9L1070.3 502.9L1070.3 505.9L1066.9 505.9L1066.9 506.1Q1068.0 506.8 1068.7 507.8Q1069.4 508.9 1069.4 510.5L1069.4 510.5Q1069.4 511.7 1068.9 512.7Q1068.5 513.6 1067.6 514.3Q1066.8 514.9 1065.6 515.3Q1064.5 515.6 1063.0 515.6L1063.0 515.6Q1062.4 515.6 1061.8 515.5Q1061.2 515.5 1060.7 515.3L1060.7 515.3Q1060.4 515.5 1060.2 515.8Q1060.0 516.0 1060.0 516.4L1060.0 516.4Q1060.0 516.7 1060.1 516.9Q1060.3 517.1 1060.6 517.2Q1060.9 517.3 1061.3 517.3Q1061.7 517.4 1062.1 517.4L1062.1 517.4L1065.4 517.4Q1066.9 517.4 1068.0 517.7Q1069.1 518.0 1069.8 518.6Q1070.5 519.1 1070.8 519.9Q1071.1 520.6 1071.1 521.5ZM1067.2 521.9L1067.2 521.9Q1067.2 521.3 1066.8 521.0Q1066.3 520.7 1065.0 520.7L1065.0 520.7L1060.1 520.7Q1059.5 521.1 1059.5 521.8L1059.5 521.8Q1059.5 522.5 1060.1 522.9Q1060.7 523.4 1062.1 523.4L1062.1 523.4L1064.5 523.4Q1065.9 523.4 1066.6 523.0Q1067.2 522.6 1067.2 521.9ZM1063.0 513.0L1063.0 513.0Q1064.3 513.0 1064.9 512.4Q1065.4 511.7 1065.4 510.8L1065.4 510.8L1065.4 510.1Q1065.4 509.2 1064.9 508.6Q1064.3 507.9 1063.0 507.9L1063.0 507.9Q1061.8 507.9 1061.2 508.6Q1060.7 509.2 1060.7 510.1L1060.7 510.1L1060.7 510.8Q1060.7 511.7 1061.2 512.4Q1061.8 513.0 1063.0 513.0Z " clip-path="url(#satori_cp-id-1-0-1-1)" mask="url(#satori_om-id-1-0-1-1)"/></svg>